#!OML:ASF F:\VICON\USERDATA\INSTALL\rory3\rory3.ASF
:FULLY-SPECIFIED
:DEGREES
151
root -0.276878 18.5875 7.08537 -176.783 -8.67881 174.454
lowerback 7.99851 1.37078 -4.1486
upperback 2.17563 1.24469 -1.76432
thorax -2.28503 0.548269 0.387484
lowerneck -8.7339 0.971507 -6.83745
upperneck 26.3279 -0.320803 5.05199
head 9.73393 -0.893347 2.80239
rclavicle -1.08586e-014 -3.42904e-015
rhumerus -27.1545 0.54599 -83.8833
rradius 29.1579
rwrist 17.958
rhand -26.1168 6.00058
rfingers 7.12502
rthumb 0.432963 -23.9787
lclavicle -1.08586e-014 -3.42904e-015
lhumerus -27.4543 14.4187 70.7384
lradius 41.9618
lwrist 7.51797
lhand -23.8893 25.5381
lfingers 7.12502
lthumb 2.58429 55.5022
rfemur -16.3347 17.6369 20.0717
rtibia 35.6639
rfoot -21.7362 -13.7556
rtoes 11.1354
lfemur -13.62 11.5329 -24.517
ltibia 35.2178
lfoot -16.55 9.40381
ltoes -11.5961
152
root -0.266863 18.584 7.08264 -176.884 -8.35125 174.926
lowerback 7.9849 1.33715 -3.66164
upperback 2.14851 1.2593 -1.56764
thorax -2.29973 0.56096 0.316557
lowerneck -8.71337 1.02671 -6.77464
upperneck 26.2887 -0.214165 4.90114
head 9.70966 -0.853831 2.7486
rclavicle 9.25591e-015 9.93923e-015
rhumerus -27.2337 0.638285 -83.9192
rradius 29.2298
rwrist 17.9128
rhand -26.8691 6.84537
rfingers 7.12502
rthumb -0.293634 -23.1342
lclavicle 9.25591e-015 9.93923e-015
lhumerus -27.5546 14.5991 70.8627
lradius 42.0049
lwrist 6.97059
lhand -23.5059 25.833
lfingers 7.12502
lthumb 2.95455 55.7922
rfemur -16.2007 17.4843 20.5923
rtibia 35.4873
rfoot -21.7042 -13.2906
rtoes 11.2081
lfemur -14.5717 12.3065 -23.7892
ltibia 37.0786
lfoot -16.0758 8.56443
ltoes -12.1899
153
root -0.255795 18.5796 7.07681 -176.992 -8.15846 175.301
lowerback 7.97497 1.31115 -3.25025
upperback 2.1393 1.27183 -1.42251
thorax -2.29831 0.57019 0.234837
lowerneck -8.67438 1.02138 -6.745
upperneck 26.2293 -0.229889 4.91215
head 9.68187 -0.856171 2.74446
rclavicle -1.03368e-014 2.83268e-014
rhumerus -27.3354 0.641614 -83.9524
rradius 29.3155
rwrist 17.672
rhand -26.9771 7.16979
rfingers 7.12502
rthumb -0.397972 -22.8096
lclavicle -1.03368e-014 2.83268e-014
lhumerus -27.6365 14.5509 71.1048
lradius 42.1063
lwrist 6.6419
lhand -23.3537 26.1458
lfingers 7.12502
lthumb 3.10151 56.103
rfemur -16.0103 17.236 21.056
rtibia 35.3043
rfoot -21.6289 -12.901
rtoes 11.1539
lfemur -15.5916 12.9446 -23.1233
ltibia 39.0975
lfoot -15.3577 7.78121
ltoes -13.5178
154
root -0.243739 18.573 7.07244 -177.039 -8.00146 175.64
lowerback 7.95789 1.30116 -2.8584
upperback 2.11182 1.30341 -1.2903
thorax -2.31226 0.589197 0.148567
lowerneck -8.6534 0.962302 -6.77085
upperneck 26.1507 -0.320539 4.98263
head 9.65556 -0.88997 2.76308
rclavicle -2.85504e-014 1.27222e-014
rhumerus -27.5014 0.660992 -83.9831
rradius 29.5253
rwrist 17.2429
rhand -26.613 7.06292
rfingers 7.12502
rthumb -0.0463004 -22.9168
lclavicle -2.85504e-014 1.27222e-014
lhumerus -27.7039 14.4009 71.3533
lradius 42.208
lwrist 6.12561
lhand -23.1721 26.1169
lfingers 7.12502
lthumb 3.27687 56.0715
rfemur -15.9139 17.087 21.472
rtibia 35.1154
rfoot -21.5191 -12.7127
rtoes 10.8374
lfemur -16.7637 13.4753 -22.4836
ltibia 41.2313
lfoot -14.4843 7.03195
ltoes -15.4777
155
root -0.224244 18.561 7.0747 -177.093 -7.81469 176.021
lowerback 8.11815 1.28334 -2.50471
upperback 2.04998 1.31441 -1.12862
thorax -2.46099 0.599006 0.111942
lowerneck -8.81758 0.949061 -6.83454
upperneck 26.1506 -0.313886 5.02581
head 9.68658 -0.882414 2.79159
rclavicle -2.25124e-014 1.51076e-014
rhumerus -27.5983 0.732362 -84.0222
rradius 29.6046
rwrist 17.122
rhand -26.4032 6.90773
rfingers 7.12502
rthumb 0.156305 -23.072
lclavicle -2.25124e-014 1.51076e-014
lhumerus -27.8432 14.24 71.5635
lradius 42.3906
lwrist 5.6994
lhand -22.9558 26.069
lfingers 7.12502
lthumb 3.48577 56.0203
rfemur -15.8573 17.0778 21.9478
rtibia 34.9506
rfoot -21.4233 -12.6472
rtoes 10.6312
lfemur -18.007 14.0229 -21.7745
ltibia 43.3918
lfoot -13.5949 6.32063
ltoes -17.7179
156
root -0.201332 18.5502 7.07994 -177.162 -7.60387 176.401
lowerback 8.29439 1.27483 -2.23283
upperback 2.00738 1.32973 -0.966723
thorax -2.60062 0.609373 0.120814
lowerneck -8.99861 0.933967 -6.72699
upperneck 26.1613 -0.308119 4.93644
head 9.72572 -0.872801 2.74403
rclavicle 1.38901e-014 -4.57205e-015
rhumerus -27.6653 0.709287 -84.0803
rradius 29.6221
rwrist 17.2777
rhand -26.4883 6.94991
rfingers 7.12502
rthumb 0.0741581 -23.0298
lclavicle 1.38901e-014 -4.57205e-015
lhumerus -27.9817 14.0793 71.7824
lradius 42.5958
lwrist 5.4629
lhand -22.5801 25.9033
lfingers 7.12502
lthumb 3.8486 55.8483
rfemur -15.8027 17.1452 22.4272
rtibia 34.7907
rfoot -21.3456 -12.4984
rtoes 10.9434
lfemur -19.301 14.5123 -21.0441
ltibia 45.5782
lfoot -12.6981 5.75256
ltoes -19.7576
157
root -0.183017 18.5466 7.0818 -177.252 -7.41782 176.609
lowerback 8.39723 1.28107 -2.09423
upperback 2.02838 1.35164 -0.838644
thorax -2.63619 0.620069 0.171132
lowerneck -9.0335 0.899129 -6.63854
upperneck 26.049 -0.326009 4.8396
head 9.69443 -0.874367 2.69197
rclavicle 1.41386e-014 3.77691e-015
rhumerus -27.7325 0.634947 -84.0628
rradius 29.7262
rwrist 17.2699
rhand -26.7492 7.24679
rfingers 7.12502
rthumb -0.177899 -22.7329
lclavicle 1.41386e-014 3.77691e-015
lhumerus -28.0675 13.9776 72.0776
lradius 42.7975
lwrist 5.22432
lhand -21.938 25.49
lfingers 7.12502
lthumb 4.46867 55.4229
rfemur -15.7129 17.1847 22.7229
rtibia 34.6568
rfoot -21.2362 -12.3743
rtoes 11.1356
lfemur -20.54 14.8205 -20.4854
ltibia 47.7624
lfoot -11.716 5.26615
ltoes -22.0869
158
root -0.170204 18.5452 7.08017 -177.413 -7.20978 176.742
lowerback 8.57175 1.30455 -1.90283
upperback 2.06571 1.39329 -0.787793
thorax -2.69181 0.638454 0.10874
lowerneck -8.97838 0.85305 -6.65655
upperneck 25.8118 -0.377192 4.92034
head 9.60246 -0.878152 2.71525
rclavicle 3.48619e-014 3.97569e-015
rhumerus -27.786 0.602254 -84.0947
rradius 29.8126
rwrist 17.0189
rhand -26.7757 7.31974
rfingers 7.12502
rthumb -0.203461 -22.6599
lclavicle 3.48619e-014 3.97569e-015
lhumerus -28.1647 13.824 72.3405
lradius 42.9466
lwrist 4.91512
lhand -21.6395 25.2574
lfingers 7.12502
lthumb 4.75692 55.184
rfemur -15.5168 17.1186 22.9405
rtibia 34.553
rfoot -21.1539 -12.1491
rtoes 10.7799
lfemur -21.6239 15.0683 -19.9845
ltibia 49.9341
lfoot -10.9096 4.54411
ltoes -24.0439
159
root -0.155496 18.5422 7.08072 -177.579 -7.00469 176.873
lowerback 8.82948 1.33229 -1.72752
upperback 2.0846 1.43739 -0.733389
thorax -2.81288 0.658369 0.0565632
lowerneck -8.97267 0.799666 -6.73062
upperneck 25.6127 -0.449692 5.08803
head 9.53486 -0.888844 2.77723
rclavicle 2.44008e-014 -1.64991e-014
rhumerus -27.8532 0.692091 -84.1489
rradius 29.9166
rwrist 16.6274
rhand -26.49 6.94088
rfingers 7.12502
rthumb 0.0725132 -23.0389
lclavicle 2.44008e-014 -1.64991e-014
lhumerus -28.2712 13.6936 72.5964
lradius 43.0798
lwrist 4.60083
lhand -21.6691 24.8534
lfingers 7.12502
lthumb 4.72832 54.7806
rfemur -15.3543 16.9762 23.1412
rtibia 34.5005
rfoot -21.1218 -11.7298
rtoes 10.8798
lfemur -22.7151 15.2767 -19.4802
ltibia 52.1031
lfoot -10.4816 3.59493
ltoes -26.0979
160
root -0.138457 18.5395 7.08044 -177.704 -6.88557 176.989
lowerback 9.03071 1.32813 -1.66846
upperback 2.10663 1.43347 -0.627711
thorax -2.90275 0.655335 0.129088
lowerneck -9.03936 0.745065 -6.79822
upperneck 25.5188 -0.502914 5.1404
head 9.51813 -0.906169 2.8013
rclavicle 4.07509e-015 -4.57205e-015
rhumerus -27.9869 0.964389 -84.2021
rradius 30.1261
rwrist 16.2394
rhand -26.3758 6.83896
rfingers 7.12502
rthumb 0.182755 -23.1407
lclavicle 4.07509e-015 -4.57205e-015
lhumerus -28.4345 13.5955 72.8838
lradius 43.2877
lwrist 4.38498
lhand -21.5285 24.6173
lfingers 7.12502
lthumb 4.86403 54.5415
rfemur -15.239 16.9403 23.3238
rtibia 34.4551
rfoot -21.2102 -11.4364
rtoes 11.7116
lfemur -23.9345 15.5141 -19.0357
ltibia 54.2855
lfoot -10.2313 2.17249
ltoes -28.3287
161
root -0.123615 18.5314 7.08348 -177.891 -6.74698 177.121
lowerback 9.36005 1.33436 -1.58222
upperback 2.10045 1.44226 -0.534583
thorax -3.09195 0.658731 0.168949
lowerneck -8.9352 0.70093 -6.68555
upperneck 25.3532 -0.55106 5.03893
head 9.44352 -0.923006 2.73859
rclavicle 1.98288e-014 2.5842e-015
rhumerus -28.1244 1.09771 -84.2532
rradius 30.2428
rwrist 16.0621
rhand -26.5365 6.78799
rfingers 7.12502
rthumb 0.0275661 -23.1918
lclavicle 1.98288e-014 2.5842e-015
lhumerus -28.6515 13.4109 73.1447
lradius 43.421
lwrist 4.16695
lhand -21.4869 24.4727
lfingers 7.12502
lthumb 4.90418 54.3959
rfemur -15.073 16.9014 23.5342
rtibia 34.4117
rfoot -21.2384 -11.1047
rtoes 12.4528
lfemur -25.1307 15.8303 -18.5846
ltibia 56.4929
lfoot -10.0731 -0.166919
ltoes -27.6808
162
root -0.112444 18.5226 7.09052 -178.047 -6.54993 177.294
lowerback 9.68014 1.36038 -1.35363
upperback 2.12288 1.48884 -0.48838
thorax -3.24188 0.678157 0.0762841
lowerneck -8.93536 0.643612 -6.62006
upperneck 25.1858 -0.638044 5.11701
head 9.39016 -0.938998 2.74392
rclavicle 2.35063e-014 -5.96354e-015
rhumerus -28.0986 1.04563 -84.3218
rradius 30.2813
rwrist 15.9774
rhand -26.6292 6.50649
rfingers 7.12502
rthumb -0.0619462 -23.4732
lclavicle 2.35063e-014 -5.96354e-015
lhumerus -28.6372 13.2351 73.4053
lradius 43.2872
lwrist 3.88458
lhand -21.5683 24.1399
lfingers 7.12502
lthumb 4.8256 54.0649
rfemur -14.9606 16.7295 23.7595
rtibia 34.346
rfoot -21.0276 -10.8054
rtoes 12.4241
lfemur -26.4099 16.0867 -18.1592
ltibia 58.7468
lfoot -9.84006 -2.32423
ltoes -25.8177
163
root -0.100351 18.5215 7.09595 -178.196 -6.4106 177.454
lowerback 9.96385 1.35084 -1.17203
upperback 2.18654 1.48504 -0.404342
thorax -3.33024 0.671421 0.0566674
lowerneck -9.08702 0.597508 -6.62528
upperneck 25.0816 -0.673943 5.16231
head 9.38503 -0.938689 2.75726
rclavicle 1.97294e-014 5.36719e-015
rhumerus -27.9707 1.03383 -84.3061
rradius 30.2865
rwrist 15.9144
rhand -26.3827 6.24852
rfingers 7.12502
rthumb 0.176168 -23.7311
lclavicle 1.97294e-014 5.36719e-015
lhumerus -28.6016 13.1751 73.7435
lradius 43.1555
lwrist 3.66962
lhand -21.713 23.9934
lfingers 7.12502
lthumb 4.68591 53.9216
rfemur -14.7986 16.5793 23.9776
rtibia 34.2564
rfoot -20.8103 -10.6121
rtoes 12.8601
lfemur -27.7146 16.2364 -17.8018
ltibia 61.0092
lfoot -9.61681 -3.26374
ltoes -26.0156
164
root -0.0900703 18.5251 7.09729 -178.298 -6.30071 177.599
lowerback 10.1464 1.29022 -0.831931
upperback 2.2375 1.42883 -0.447814
thorax -3.36792 0.637519 -0.175333
lowerneck -9.15857 0.610652 -6.41542
upperneck 24.9633 -0.652821 5.10936
head 9.35551 -0.905024 2.70435
rclavicle -1.50082e-014 9.54166e-015
rhumerus -27.7997 0.962308 -84.467
rradius 30.1185
rwrist 15.9172
rhand -26.2065 5.93319
rfingers 7.12502
rthumb 0.346306 -24.0463
lclavicle -1.50082e-014 9.54166e-015
lhumerus -28.6957 12.9402 73.9121
lradius 43.1447
lwrist 3.61432
lhand -22.0097 24.1384
lfingers 7.12502
lthumb 4.39937 54.0727
rfemur -14.6406 16.4708 24.1699
rtibia 34.1611
rfoot -20.7407 -10.399
rtoes 13.1416
lfemur -29.0444 16.3941 -17.5141
ltibia 63.261
lfoot -9.66779 -3.30139
ltoes -26.5951
165
root -0.0817398 18.5312 7.09729 -178.368 -6.17049 177.625
lowerback 10.1882 1.21405 -0.43654
upperback 2.34987 1.34896 -0.671414
thorax -3.25897 0.589234 -0.618221
lowerneck -9.22361 0.616697 -6.07081
upperneck 24.8026 -0.680832 5.12188
head 9.31264 -0.873484 2.64548
rclavicle -1.15295e-014 -1.98785e-016
rhumerus -27.4913 0.762734 -84.8496
rradius 29.8111
rwrist 15.8856
rhand -26.317 6.09056
rfingers 7.12502
rthumb 0.23957 -23.889
lclavicle -1.15295e-014 -1.98785e-016
lhumerus -28.6408 12.6434 73.8433
lradius 43.0058
lwrist 3.52296
lhand -22.218 24.0413
lfingers 7.12502
lthumb 4.19828 53.9797
rfemur -14.5277 16.3572 24.2117
rtibia 34.0803
rfoot -20.7082 -10.1129
rtoes 13.2281
lfemur -30.365 16.6487 -17.3859
ltibia 65.4692
lfoot -9.9496 -3.40535
ltoes -26.3422
